<svg width="24" height="24" viewBox="0 0 24 24" fill="none" xmlns="http://www.w3.org/2000/svg"><path d="M18.906 3.151a11.253 11.253 0 1 0 0 17.556c-1.263.886-2.694 1.352-4.151 1.35s-2.888-.47-4.15-1.36c-1.26-.89-2.308-2.168-3.036-3.707s-1.111-3.284-1.111-5.061.383-3.522 1.11-5.061c.729-1.54 1.776-2.818 3.037-3.707 1.262-.89 2.693-1.359 4.15-1.36s2.888.464 4.151 1.35" fill="#CC0B14"/><path d="M8.778 4.952c1.29-1.634 2.987-2.698 4.822-3.024s3.703.104 5.306 1.223a11.253 11.253 0 0 1 0 17.556c-1.618 1.125-3.495 1.56-5.331 1.233s-3.525-1.395-4.797-3.034c.909.617 1.926.913 2.951.858s2.027-.46 2.905-1.172c.878-.713 1.604-1.711 2.108-2.898a10 10 0 0 0 .769-3.879 9.8 9.8 0 0 0-.769-3.858c-.504-1.174-1.23-2.153-2.108-2.843s-1.879-1.068-2.905-1.096-2.042.293-2.951.934" fill="#E42B2B"/></svg>